<?xml version="1.0" standalone="no"?>
<!DOCTYPE svg PUBLIC "-//W3C//DTD SVG 20010904//EN"
 "http://www.w3.org/TR/2001/REC-SVG-20010904/DTD/svg10.dtd">
<svg version="1.0" xmlns="http://www.w3.org/2000/svg"
 width="320.000000pt" height="320.000000pt" viewBox="0 0 320.000000 320.000000"
 preserveAspectRatio="xMidYMid meet">

<g transform="translate(0.000000,320.000000) scale(0.100000,-0.100000)"
fill="#000000" stroke="none">
<path d="M1434 3190 c-168 -18 -369 -74 -515 -144 -734 -350 -1090 -1182 -834
-1952 158 -476 533 -851 1009 -1009 405 -134 842 -104 1219 86 713 358 1053
1179 802 1935 -235 709 -939 1162 -1681 1084z m-512 -1219 c3 -753 3 -760 24
-788 11 -15 32 -30 45 -33 15 -4 25 -14 27 -28 l3 -22 -215 0 -216 0 0 24 c0
18 7 25 30 30 61 12 60 3 59 758 0 502 -3 692 -12 718 -9 26 -20 37 -44 45
-25 7 -33 15 -33 32 l0 23 165 0 164 0 3 -759z m1572 30 c80 -28 142 -70 210
-141 222 -233 179 -609 -90 -790 -42 -27 -81 -50 -87 -50 -36 -1 -38 -17 -7
-74 36 -69 39 -122 9 -183 -11 -24 -38 -55 -60 -70 -21 -16 -39 -31 -39 -34 0
-3 17 -12 39 -19 55 -18 90 -49 105 -94 50 -147 -155 -246 -479 -233 -249 10
-388 76 -451 211 -28 61 -32 148 -9 204 23 55 82 109 145 134 48 19 82 22 280
27 232 6 259 11 280 51 18 33 11 40 -38 40 -263 0 -502 247 -502 520 0 242
164 456 396 515 79 20 220 13 298 -14z m-1204 -417 c6 -370 4 -364 73 -364 35
0 46 6 84 46 l43 47 0 259 0 259 -25 24 c-13 14 -31 25 -40 25 -8 0 -15 9 -15
20 0 19 7 20 160 20 l160 0 1 -327 c0 -181 3 -346 7 -368 6 -33 13 -43 45 -58
20 -10 37 -25 37 -33 0 -11 -29 -14 -165 -14 l-165 0 0 45 0 45 -52 -41 c-70
-56 -105 -69 -181 -69 -52 0 -71 5 -108 29 -94 59 -108 119 -109 466 0 121 -3
230 -6 242 -4 14 -20 27 -40 35 -22 8 -34 19 -34 30 0 17 11 18 163 16 l162
-3 5 -331z"/>
<path d="M2515 1928 c-75 -43 -48 -148 39 -148 79 0 106 109 35 145 -33 18
-47 18 -74 3z"/>
<path d="M2396 1740 c-32 -5 -64 -14 -71 -20 -6 -5 -20 -37 -30 -70 -19 -64
-12 -90 25 -90 22 0 34 15 49 63 10 29 18 37 36 37 l23 0 -19 -72 c-34 -131
-32 -137 89 -218 58 -39 56 -35 72 -138 10 -63 15 -73 36 -78 39 -10 57 13 50
61 -27 169 -24 162 -80 202 -28 20 -52 37 -53 38 -7 4 32 155 38 153 4 -2 18
-19 31 -38 23 -33 27 -35 90 -38 59 -3 68 0 78 18 19 36 -3 60 -55 60 -44 0
-46 2 -79 53 -19 29 -40 58 -48 65 -20 16 -112 22 -182 12z"/>
<path d="M2238 1510 c-13 -22 -27 -40 -31 -40 -4 0 -25 9 -47 20 -45 23 -79
25 -103 8 -26 -21 -127 -189 -127 -214 0 -14 11 -29 32 -42 l32 -20 28 30 c23
25 34 29 61 26 17 -3 39 -8 47 -11 11 -5 35 27 93 125 43 72 76 137 73 145
-10 25 -35 13 -58 -27z"/>
<path d="M2306 1315 c-66 -120 -72 -160 -22 -160 27 0 34 9 89 109 l60 110
-27 23 c-15 13 -31 23 -35 23 -4 0 -34 -47 -65 -105z"/>
<path d="M2053 1233 c-18 -7 -16 -58 2 -73 20 -17 62 -5 70 20 13 42 -27 72
-72 53z"/>
<path d="M1917 620 c-76 -10 -111 -35 -115 -84 -8 -97 99 -146 317 -146 131 0
201 18 248 65 61 61 34 145 -52 165 -47 11 -313 11 -398 0z"/>
</g>
</svg>
